<?xml version="1.0" standalone="no"?>
<!DOCTYPE svg PUBLIC "-//W3C//DTD SVG 20010904//EN"
 "http://www.w3.org/TR/2001/REC-SVG-20010904/DTD/svg10.dtd">
<svg version="1.0" xmlns="http://www.w3.org/2000/svg"
 width="612.000000pt" height="612.000000pt" viewBox="0 0 612.000000 612.000000"
 preserveAspectRatio="xMidYMid meet">
<metadata>
Created by potrace 1.11, written by Peter Selinger 2001-2013
</metadata>
<g transform="translate(0.000000,612.000000) scale(0.100000,-0.100000)"
fill="#000000" stroke="none">
<path d="M2132 4804 c-131 -43 -249 -136 -360 -283 -31 -42 -57 -78 -58 -79
-1 -2 -46 -15 -100 -28 -53 -14 -123 -38 -154 -54 -48 -24 -166 -107 -206
-145 -123 -115 -206 -201 -274 -285 -25 -30 -92 -109 -150 -175 -131 -149
-186 -226 -238 -335 -121 -251 -140 -579 -50 -845 56 -163 144 -302 272 -430
136 -135 270 -218 449 -276 527 -172 1104 73 1355 576 30 61 92 235 92 260 0
30 20 22 76 -31 33 -31 84 -68 114 -82 48 -24 67 -27 155 -27 88 0 107 3 158
27 37 17 81 51 119 89 32 33 61 59 62 57 2 -1 11 -36 20 -77 85 -354 371 -663
731 -788 427 -148 939 -5 1218 340 92 114 169 253 218 398 32 91 33 101 37
288 4 208 -1 259 -45 389 -56 167 -142 306 -287 462 -23 25 -85 97 -138 161
-53 63 -157 173 -231 245 -175 169 -283 232 -449 263 -66 13 -66 13 -111 79
-169 246 -392 363 -601 315 -169 -39 -303 -161 -351 -320 -19 -63 -14 -295 8
-372 l16 -55 -42 -73 c-37 -67 -43 -72 -54 -56 -36 49 -92 96 -148 124 -126
62 -235 39 -360 -75 -33 -30 -63 -51 -67 -48 -4 4 -22 35 -41 69 -34 60 -35
63 -22 106 32 108 39 269 14 366 -63 247 -339 402 -577 325z m-346 -1019 c202
-42 414 -189 534 -372 103 -156 146 -315 137 -503 -7 -136 -26 -216 -77 -327
-87 -188 -205 -309 -394 -407 -333 -171 -739 -101 -1005 174 -92 95 -147 186
-195 320 -32 89 -41 157 -39 305 1 133 19 208 78 332 180 373 557 560 961 478z
m2879 6 c289 -60 510 -234 630 -495 59 -128 69 -175 69 -341 0 -188 -12 -243
-80 -380 -95 -192 -216 -314 -399 -404 -88 -43 -131 -58 -225 -78 -46 -10
-284 -5 -334 6 -270 64 -507 265 -612 522 -46 111 -55 159 -59 299 -3 116 0
148 20 227 42 164 110 286 226 404 129 131 306 221 483 246 22 3 42 6 44 8 11
10 164 2 237 -14z m-1550 -735 c44 -19 79 -84 70 -132 -8 -47 -49 -92 -95
-104 -52 -14 -85 -4 -126 37 -29 28 -34 41 -34 79 0 107 84 162 185 120z"/>
</g>
</svg>
