<?xml version="1.0" encoding="UTF-8" standalone="yes"?>
<!-- Created with sK1/UniConvertor (http://sk1project.org/) -->
<svg xmlns="http://www.w3.org/2000/svg" xmlns:xlink="http://www.w3.org/1999/xlink"
  width="595.276pt" height="841.89pt" viewBox="0 0 595.276 841.89"
  fill-rule="evenodd">
<g>
<path style="stroke:none; fill:none" d="M 476.644 826.786C 476.644 824.413 476.046 822.582 474.85 821.293C 473.654 820.004 471.952 819.359 469.745 819.359C 467.362 819.359 465.441 820.145 463.981 821.717C 462.521 823.29 461.791 825.414 461.791 828.09C 461.791 830.795 462.552 832.882 464.076 834.352C 465.599 835.822 467.718 836.556 470.433 836.556C 471.498 836.556 472.513 836.424 473.48 836.161C 474.447 835.897 475.394 835.57 476.322 835.179L 476.322 832.176L 476.176 832.176C 475.697 832.606 474.894 833.043 473.766 833.487C 472.638 833.932 471.517 834.154 470.404 834.154C 469.564 834.154 468.795 834.037 468.097 833.802C 467.399 833.568 466.796 833.216 466.288 832.748C 465.761 832.269 465.345 831.656 465.043 830.909C 464.74 830.162 464.589 829.286 464.589 828.28L 476.644 828.28L 476.644 826.786zM 464.589 826.171C 464.706 824.882 465.201 823.803 466.076 822.933C 466.949 822.064 468.124 821.63 469.598 821.63C 471.063 821.63 472.155 822.025 472.872 822.816C 473.59 823.607 473.954 824.725 473.964 826.171L 464.589 826.171z"/>
<path style="stroke:none; fill:none" d="M 494.501 825.555C 494.501 823.554 494.037 822.02 493.109 820.956C 492.181 819.891 490.834 819.359 489.066 819.359C 488.099 819.359 487.157 819.559 486.239 819.96C 485.321 820.36 484.432 820.917 483.573 821.63L 483.573 819.813L 480.819 819.813L 480.819 836.175L 483.573 836.175L 483.573 823.959C 484.325 823.383 485.111 822.909 485.931 822.538C 486.752 822.167 487.538 821.981 488.29 821.981C 489.022 821.981 489.618 822.081 490.077 822.281C 490.536 822.482 490.887 822.787 491.132 823.197C 491.366 823.568 491.527 824.083 491.615 824.742C 491.703 825.402 491.747 826.107 491.747 826.859L 491.747 836.175L 494.501 836.175L 494.501 825.555z"/>
<path style="stroke:none; fill:none" d="M 513.075 819.813L 510.497 819.813L 510.321 820.516C 509.608 820.126 508.932 819.835 508.292 819.645C 507.653 819.454 506.859 819.359 505.912 819.359C 505.013 819.359 504.11 819.552 503.202 819.938C 502.294 820.324 501.522 820.863 500.888 821.556C 500.204 822.299 499.664 823.18 499.269 824.2C 498.873 825.221 498.676 826.434 498.676 827.841C 498.676 830.409 499.249 832.399 500.397 833.81C 501.544 835.221 503.094 835.926 505.048 835.926C 506.22 835.926 507.184 835.763 507.941 835.436C 508.697 835.109 509.491 834.613 510.321 833.949L 510.321 835.443C 510.321 836.107 510.248 836.708 510.101 837.245C 509.955 837.782 509.711 838.241 509.369 838.622C 509.027 839.022 508.549 839.334 507.933 839.559C 507.318 839.784 506.542 839.896 505.604 839.896C 504.628 839.896 503.651 839.767 502.675 839.508C 501.698 839.249 500.985 839.032 500.536 838.856L 500.389 838.856L 500.389 841.669C 501.19 841.893 502.003 842.066 502.828 842.189C 503.654 842.311 504.501 842.372 505.37 842.372C 507.987 842.372 509.926 841.722 511.185 840.424C 512.445 839.125 513.075 837.089 513.075 834.315L 513.075 819.813zM 508.102 832.916C 507.296 833.224 506.493 833.378 505.692 833.378C 504.198 833.378 503.129 832.904 502.484 831.957C 501.84 831.01 501.517 829.618 501.517 827.782C 501.517 825.848 501.952 824.374 502.821 823.358C 503.69 822.343 504.882 821.835 506.395 821.835C 507.02 821.835 507.648 821.906 508.278 822.047C 508.908 822.189 509.589 822.426 510.321 822.757L 510.321 831.678C 509.647 832.196 508.908 832.609 508.102 832.916z"/>
<path style="stroke:none; fill:none" d="M 530.39 821.681C 529.022 820.133 527.191 819.359 524.896 819.359C 522.582 819.359 520.744 820.133 519.381 821.681C 518.019 823.229 517.338 825.336 517.338 828.002C 517.338 830.668 518.019 832.772 519.381 834.315C 520.744 835.858 522.582 836.63 524.896 836.63C 527.191 836.63 529.022 835.858 530.39 834.315C 531.757 832.772 532.44 830.668 532.44 828.002C 532.44 825.336 531.757 823.229 530.39 821.681zM 528.346 832.682C 527.511 833.732 526.361 834.257 524.896 834.257C 523.412 834.257 522.255 833.727 521.425 832.667C 520.594 831.608 520.18 830.052 520.18 828.002C 520.18 825.883 520.592 824.308 521.417 823.278C 522.242 822.247 523.402 821.732 524.896 821.732C 526.371 821.732 527.523 822.247 528.353 823.278C 529.183 824.308 529.598 825.883 529.598 828.002C 529.598 830.072 529.181 831.632 528.346 832.682z"/>
</g>
</svg>